<svg width="575" height="833" viewBox="0 0 575 833" fill="none" xmlns="http://www.w3.org/2000/svg">
<path d="M101.341 399.176L101.324 332.667C101.324 321.764 100.982 308.39 101.732 297.756C104.96 246.272 126.76 197.709 163.082 161.088C165.971 158.198 168.81 154.954 171.88 152.278C200.564 127.269 235.017 110.757 272.7 105.029C287.413 103.099 302.601 103.222 317.444 103.456C329.608 103.648 343.214 102.765 355.21 103.642C407.156 106.09 453.477 129.743 488.299 167.919C517.427 200.017 535.905 240.35 541.187 283.376C541.521 286.292 543.363 293.855 543.338 295.619C543.855 300.594 543.729 307.724 543.729 312.865L543.7 338.765L543.631 422.674V538.68C543.631 559.066 544.664 582.514 543.172 602.546C538.873 660.372 513.002 714.814 468.084 752.063C437.976 777.033 401.945 792.737 362.572 796.495C340.608 798.008 305.172 798.663 283.054 796.548C244.947 792.997 208.753 778.208 179.065 754.048C134.139 717.442 108.369 666.152 102.241 608.725C101.185 598.833 101.361 589.376 101.359 579.472L101.359 546.4L101.38 448.575C101.381 432.977 101.839 414.523 101.341 399.176Z" fill="#63778C"/>
<path d="M101.341 399.176L101.324 332.667C101.324 321.764 100.982 308.39 101.732 297.756C104.96 246.272 126.76 197.709 163.082 161.088C165.971 158.198 168.81 154.954 171.88 152.278C200.564 127.269 235.017 110.757 272.7 105.029C287.413 103.099 302.601 103.222 317.444 103.456C329.608 103.648 343.214 102.765 355.21 103.642C407.156 106.09 453.477 129.743 488.299 167.919C517.427 200.017 535.905 240.35 541.187 283.376C541.521 286.292 543.363 293.855 543.338 295.619C542.899 303.88 543.444 316.911 543.44 325.637L543.363 399.231C499.79 400.011 454.624 399.417 410.966 399.412L359.565 399.413C351.428 399.415 339.942 399.76 332.158 399.3L329.781 399.279C325.764 399.572 317.241 399.327 313.23 399.111C306.524 398.745 296.475 399.056 289.582 399.053L242.32 399.047L110.302 399.125C108.895 399.604 103.137 399.273 101.341 399.176Z" fill="#B9E0BB"/>
<path d="M355.21 103.642C407.156 106.09 453.477 129.743 488.299 167.919C517.427 200.017 535.905 240.35 541.187 283.376C541.521 286.292 543.363 293.855 543.338 295.619C542.899 303.88 543.444 316.911 543.44 325.637L543.363 399.231C499.79 400.011 454.624 399.417 410.966 399.412L359.564 399.413C351.428 399.415 339.942 399.76 332.158 399.3L332.054 399.005C331.079 395.459 331.766 363.372 331.991 357.802C338.183 358.007 344.113 355.496 349.032 351.86C363.991 340.804 361.444 322.701 361.45 306.466L361.462 259.936L361.459 210.605C361.456 202.097 362.087 191.639 360.873 183.36C358.622 168.02 346.32 158.604 331.749 156.986L331.888 112.762C331.887 109.86 331.956 106.879 331.992 103.97C336.538 103.246 349.467 104.036 355.21 103.642Z" fill="#E1EAEE"/>
<path d="M355.21 103.642C407.156 106.09 453.477 129.743 488.299 167.919C517.427 200.017 535.905 240.35 541.187 283.376C541.521 286.292 543.363 293.855 543.338 295.619C542.899 303.88 543.444 316.911 543.44 325.637L543.363 399.231C499.79 400.011 454.624 399.417 410.966 399.412L359.565 399.413C351.428 399.415 339.942 399.76 332.158 399.3L332.054 399.005L533.981 398.996L533.969 337.855C533.973 326.841 534.217 314.616 533.896 303.691C532.078 256.207 513.726 210.852 482.008 175.474C441.896 131.365 391.186 110.898 331.888 112.762C331.887 109.86 331.956 106.879 331.992 103.97C336.538 103.246 349.467 104.036 355.21 103.642Z" fill="#AFBFD1"/>
<path d="M313.313 357.874C305.214 358.092 296.67 353.746 291.402 347.692C285.211 340.578 283.545 333.441 283.547 324.223C283.549 316.483 283.529 308.748 283.527 301.017L283.531 247.661L283.531 206.723C283.526 200.86 283.229 188.752 284.006 183.467C284.882 177.689 287.367 172.275 291.176 167.843C297.001 160.954 304.563 157.684 313.481 156.958C319.157 156.99 324.92 156.924 330.581 157.005L331.749 156.986C346.32 158.604 358.622 168.02 360.873 183.36C362.087 191.639 361.456 202.097 361.459 210.605L361.462 259.936L361.45 306.466C361.444 322.701 363.991 340.804 349.032 351.86C344.114 355.496 338.183 358.007 331.991 357.802L329.469 357.63C324.083 357.649 318.697 357.73 313.313 357.874Z" fill="#63778C"/>
<path d="M101.341 399.176L101.324 332.667C101.324 321.764 100.982 308.39 101.732 297.756C104.96 246.272 126.76 197.709 163.082 161.088C165.971 158.198 168.81 154.954 171.88 152.278C200.564 127.269 235.017 110.757 272.7 105.029C287.413 103.099 302.601 103.222 317.444 103.456C329.608 103.648 343.214 102.765 355.21 103.642C349.467 104.036 336.538 103.246 331.992 103.97C331.956 106.879 331.887 109.86 331.888 112.762L331.749 156.986L330.581 157.005C324.92 156.924 319.157 156.99 313.481 156.958C313.386 143.43 313.853 125.927 313.279 112.784C298.895 112.813 284.55 113.004 270.237 115.436C198.088 127.696 141.201 182.37 120.065 251.52C109.969 284.55 110.358 307.769 110.35 341.659L110.3 398.963L110.302 399.125C108.895 399.604 103.137 399.273 101.341 399.176Z" fill="#5A9A73"/>
<path d="M331.992 103.97C331.956 106.879 331.887 109.86 331.888 112.762L331.749 156.986L330.581 157.005C328.161 152.147 329.981 112.879 329.734 104.852C330.368 104.369 330.973 104.609 331.992 103.97Z" fill="#74AA8D"/>
<path d="M313.313 357.874C318.697 357.73 324.083 357.649 329.469 357.63L331.991 357.802C331.766 363.372 331.079 395.459 332.054 399.005L332.158 399.3L329.781 399.279C325.764 399.572 317.241 399.327 313.23 399.111C313.162 385.707 313.756 371.053 313.313 357.874Z" fill="#5A9A73"/>
<path d="M329.469 357.63L331.991 357.802C331.766 363.372 331.079 395.459 332.054 399.005L332.158 399.3L329.781 399.279C328.613 395.254 329.458 363.596 329.469 357.63Z" fill="#74AA8D"/>
<path d="M110.467 408.898C129.629 408.556 149.579 408.837 168.786 408.837H278.906L533.949 408.91L533.969 531.013V575.669C533.969 584.418 534.185 594.066 533.652 602.815C531.546 637.481 519.253 672.176 500.461 701.282C493.146 712.618 485.354 721.053 476.53 731.035C475.888 731.726 475.229 732.401 474.558 733.069C443.567 763.989 402.725 783.073 359.129 787.006C350.669 787.722 341.046 787.498 332.444 787.502L296.922 787.474C226.604 786.795 166.166 744.107 134.088 683.247C106.183 630.302 110.086 581.729 110.326 524.103C110.487 485.617 109.96 447.27 110.467 408.898Z" fill="#AFBFD1"/>
<path d="M231.296 36.0093L236.278 35.8628L236.215 60.604C236.205 64.5156 236.046 71.3891 236.598 74.994C223.304 75.0859 210.052 76.516 197.044 79.2623C118.452 95.2248 61.856 174.583 64.195 253.061C64.4403 261.292 64.0775 270.129 65.7293 278.236C54.784 277.923 43.4715 278.07 32.496 278.083L27.6824 278.188C27.1368 273.377 27.2578 268.318 27.0016 263.484C20.7699 145.912 105.888 38.26 231.296 36.0093Z" fill="#5A9A73"/>
</svg>
