<svg width="26" height="26" viewBox="0 0 26 26" fill="none" xmlns="http://www.w3.org/2000/svg">
<path d="M2.4375 4.875C1.79103 4.875 1.17105 5.13181 0.713927 5.58893C0.256807 6.04605 0 6.66603 0 7.3125L0 9.75C0 9.96549 0.0856024 10.1722 0.237976 10.3245C0.390349 10.4769 0.597012 10.5625 0.8125 10.5625C1.45897 10.5625 2.07895 10.8193 2.53607 11.2764C2.99319 11.7335 3.25 12.3535 3.25 13C3.25 13.6465 2.99319 14.2665 2.53607 14.7236C2.07895 15.1807 1.45897 15.4375 0.8125 15.4375C0.597012 15.4375 0.390349 15.5231 0.237976 15.6755C0.0856024 15.8278 0 16.0345 0 16.25L0 18.6875C0 19.334 0.256807 19.954 0.713927 20.4111C1.17105 20.8682 1.79103 21.125 2.4375 21.125H23.5625C24.209 21.125 24.829 20.8682 25.2861 20.4111C25.7432 19.954 26 19.334 26 18.6875V16.25C26 16.0345 25.9144 15.8278 25.762 15.6755C25.6097 15.5231 25.403 15.4375 25.1875 15.4375C24.541 15.4375 23.921 15.1807 23.4639 14.7236C23.0068 14.2665 22.75 13.6465 22.75 13C22.75 12.3535 23.0068 11.7335 23.4639 11.2764C23.921 10.8193 24.541 10.5625 25.1875 10.5625C25.403 10.5625 25.6097 10.4769 25.762 10.3245C25.9144 10.1722 26 9.96549 26 9.75V7.3125C26 6.66603 25.7432 6.04605 25.2861 5.58893C24.829 5.13181 24.209 4.875 23.5625 4.875H2.4375Z" fill="#FF6900"/>
</svg>
