<svg width="76" height="76" viewBox="0 0 76 76" fill="none" xmlns="http://www.w3.org/2000/svg">
<path d="M0 37.9843C0 17.0061 17.0061 0 37.9843 0V0C58.9624 0 75.9686 17.0061 75.9686 37.9843V37.9843C75.9686 58.9624 58.9624 75.9686 37.9843 75.9686V75.9686C17.0061 75.9686 0 58.9624 0 37.9843V37.9843Z" fill="#F65505" fill-opacity="0.1"/>
<path d="M37.9843 34.3181C37.0119 34.3181 36.0795 34.7043 35.3921 35.3918C34.7046 36.0793 34.3184 37.0117 34.3184 37.9839C34.3184 39.8537 34.1351 42.5847 33.8418 45.3157" stroke="#F65505" stroke-width="2.74943" stroke-linecap="round" stroke-linejoin="round"/>
<path d="M41.6504 40.0371C41.6504 44.3995 41.6504 51.7313 39.8174 56.3137" stroke="#F65505" stroke-width="2.74943" stroke-linecap="round" stroke-linejoin="round"/>
<path d="M47.6807 54.5173C47.9007 53.4175 48.4689 50.3015 48.5971 48.9819" stroke="#F65505" stroke-width="2.74943" stroke-linecap="round" stroke-linejoin="round"/>
<path d="M19.6553 37.9839C19.6553 34.137 20.8657 30.3874 23.1151 27.2666C25.3645 24.1457 28.5388 21.8117 32.1885 20.5951C35.8381 19.3786 39.778 19.3412 43.45 20.4883C47.1221 21.6353 50.3401 23.9087 52.6483 26.9863" stroke="#F65505" stroke-width="2.74943" stroke-linecap="round" stroke-linejoin="round"/>
<path d="M55.9473 45.3157C56.3139 41.6499 56.1873 35.5022 55.9473 34.3181" stroke="#F65505" stroke-width="2.74943" stroke-linecap="round" stroke-linejoin="round"/>
<path d="M25.1543 51.7311C26.0708 48.9817 26.9872 43.4829 26.9872 37.9839C26.9854 36.7355 27.1961 35.4958 27.6105 34.3181" stroke="#F65505" stroke-width="2.74943" stroke-linecap="round" stroke-linejoin="round"/>
<path d="M31.8438 56.3137C32.2287 55.1039 32.6686 53.8941 32.8885 52.6477" stroke="#F65505" stroke-width="2.74943" stroke-linecap="round" stroke-linejoin="round"/>
<path d="M32.4854 28.4529C34.1577 27.4874 36.0549 26.9792 37.9859 26.9795C39.9171 26.9798 41.8141 27.4886 43.4861 28.4547C45.1581 29.4207 46.5463 30.8101 47.5111 32.4829C48.4759 34.1557 48.9831 36.0531 48.9819 37.9841V41.6501" stroke="#F65505" stroke-width="2.74943" stroke-linecap="round" stroke-linejoin="round"/>
<path d="M19.6553 45.3159H19.6753" stroke="#F65505" stroke-width="2.74943" stroke-linecap="round" stroke-linejoin="round"/>
</svg>
