<svg width="55" height="55" viewBox="0 0 55 55" fill="none" xmlns="http://www.w3.org/2000/svg">
<rect width="55" height="55" rx="10" fill="#9A1CB9" fill-opacity="0.2"/>
<path d="M25.2125 15.1249C24.9266 14.8343 24.5094 14.7171 24.1157 14.8249C23.7219 14.9327 23.4172 15.2374 23.3188 15.6312L22.6016 18.4531C22.55 18.6593 22.3391 18.7812 22.1375 18.7202L19.3344 17.9327C18.9407 17.8202 18.5188 17.9327 18.2328 18.2187C17.9469 18.5046 17.8344 18.9265 17.9469 19.3202L18.7391 22.1234C18.7953 22.3249 18.6735 22.5359 18.4719 22.5874L15.6453 23.3046C15.2516 23.4031 14.9422 23.7124 14.8344 24.1062C14.7266 24.4999 14.8438 24.9171 15.1344 25.2031L17.2203 27.2327C17.3703 27.3781 17.3703 27.6218 17.2203 27.7718L15.1391 29.8015C14.8485 30.0874 14.7313 30.5046 14.8391 30.8984C14.9469 31.2921 15.2563 31.5968 15.65 31.6999L18.4719 32.4171C18.6782 32.4687 18.8 32.6796 18.7391 32.8812L17.9469 35.6796C17.8344 36.0734 17.9469 36.4952 18.2328 36.7812C18.5188 37.0671 18.9407 37.1796 19.3344 37.0671L22.1375 36.2749C22.3391 36.2187 22.55 36.3406 22.6016 36.5421L23.3188 39.364C23.4172 39.7577 23.7266 40.0671 24.1203 40.1749C24.5141 40.2827 24.9313 40.1656 25.2172 39.8749L27.2469 37.789C27.3922 37.639 27.636 37.639 27.786 37.789L29.811 39.8749C30.0969 40.1656 30.5141 40.2827 30.9078 40.1749C31.3016 40.0671 31.6063 39.7577 31.7094 39.364L32.4266 36.5468C32.4782 36.3406 32.6891 36.2187 32.8907 36.2796L35.6938 37.0718C36.0875 37.1843 36.5094 37.0718 36.7953 36.7859C37.0813 36.4999 37.1938 36.0781 37.0813 35.6843L36.2891 32.8812C36.2328 32.6796 36.3547 32.4687 36.5563 32.4171L39.3782 31.6999C39.7719 31.6015 40.0813 31.2921 40.1891 30.8984C40.2969 30.5046 40.1797 30.0827 39.8891 29.8015L37.8032 27.7718C37.6532 27.6265 37.6532 27.3827 37.8032 27.2327L39.8891 25.2031C40.1797 24.9171 40.2969 24.4999 40.1891 24.1062C40.0813 23.7124 39.7719 23.4077 39.3782 23.3046L36.5563 22.5874C36.35 22.5359 36.2282 22.3249 36.2891 22.1234L37.0813 19.3202C37.1938 18.9265 37.0813 18.5046 36.7953 18.2187C36.5094 17.9327 36.0875 17.8202 35.6938 17.9327L32.8907 18.7249C32.6891 18.7812 32.4782 18.6593 32.4266 18.4577L31.7094 15.6312C31.611 15.2374 31.3016 14.9281 30.9078 14.8202C30.5141 14.7124 30.0969 14.8296 29.811 15.1202L27.7813 17.2109C27.636 17.3609 27.3922 17.3609 27.2422 17.2109L25.2125 15.1249Z" fill="#9A1CB9"/>
</svg>
