<svg width="40" height="40" viewBox="0 0 40 40" fill="none" xmlns="http://www.w3.org/2000/svg">
<rect width="40" height="40" rx="5" fill="#FF6900" fill-opacity="0.2"/>
<path d="M17.7125 7.62493C17.4266 7.33431 17.0094 7.21712 16.6157 7.32493C16.2219 7.43275 15.9172 7.73743 15.8188 8.13118L15.1016 10.9531C15.05 11.1593 14.8391 11.2812 14.6375 11.2202L11.8344 10.4327C11.4407 10.3202 11.0188 10.4327 10.7328 10.7187C10.4469 11.0046 10.3344 11.4265 10.4469 11.8202L11.2391 14.6234C11.2953 14.8249 11.1735 15.0359 10.9719 15.0874L8.14534 15.8046C7.75159 15.9031 7.44222 16.2124 7.33441 16.6062C7.22659 16.9999 7.34378 17.4171 7.63441 17.7031L9.72034 19.7327C9.87034 19.8781 9.87034 20.1218 9.72034 20.2718L7.63909 22.3015C7.34847 22.5874 7.23128 23.0046 7.33909 23.3984C7.44691 23.7921 7.75628 24.0968 8.15003 24.1999L10.9719 24.9171C11.1782 24.9687 11.3 25.1796 11.2391 25.3812L10.4469 28.1796C10.3344 28.5734 10.4469 28.9952 10.7328 29.2812C11.0188 29.5671 11.4407 29.6796 11.8344 29.5671L14.6375 28.7749C14.8391 28.7187 15.05 28.8406 15.1016 29.0421L15.8188 31.864C15.9172 32.2577 16.2266 32.5671 16.6203 32.6749C17.0141 32.7827 17.4313 32.6656 17.7172 32.3749L19.7469 30.289C19.8922 30.139 20.136 30.139 20.286 30.289L22.311 32.3749C22.5969 32.6656 23.0141 32.7827 23.4078 32.6749C23.8016 32.5671 24.1063 32.2577 24.2094 31.864L24.9266 29.0468C24.9782 28.8406 25.1891 28.7187 25.3907 28.7796L28.1938 29.5718C28.5875 29.6843 29.0094 29.5718 29.2953 29.2859C29.5813 28.9999 29.6938 28.5781 29.5813 28.1843L28.7891 25.3812C28.7328 25.1796 28.8547 24.9687 29.0563 24.9171L31.8782 24.1999C32.2719 24.1015 32.5813 23.7921 32.6891 23.3984C32.7969 23.0046 32.6797 22.5827 32.3891 22.3015L30.3032 20.2718C30.1532 20.1265 30.1532 19.8827 30.3032 19.7327L32.3891 17.7031C32.6797 17.4171 32.7969 16.9999 32.6891 16.6062C32.5813 16.2124 32.2719 15.9077 31.8782 15.8046L29.0563 15.0874C28.85 15.0359 28.7282 14.8249 28.7891 14.6234L29.5813 11.8202C29.6938 11.4265 29.5813 11.0046 29.2953 10.7187C29.0094 10.4327 28.5875 10.3202 28.1938 10.4327L25.3907 11.2249C25.1891 11.2812 24.9782 11.1593 24.9266 10.9577L24.2094 8.13118C24.111 7.73743 23.8016 7.42806 23.4078 7.32025C23.0141 7.21243 22.5969 7.32962 22.311 7.62025L20.2813 9.71087C20.136 9.86087 19.8922 9.86087 19.7422 9.71087L17.7125 7.62493Z" fill="#FF6900"/>
</svg>
