<svg width="31" height="31" viewBox="0 0 31 31" fill="none" xmlns="http://www.w3.org/2000/svg">
<path d="M13.1362 2.71258C12.8407 2.41227 12.4096 2.29117 12.0028 2.40258C11.5959 2.51398 11.281 2.82883 11.1793 3.2357L10.4382 6.15164C10.385 6.36477 10.167 6.4907 9.9587 6.42773L7.06214 5.61398C6.65526 5.49773 6.21933 5.61398 5.92386 5.90945C5.62839 6.20492 5.51214 6.64086 5.62839 7.04773L6.44698 9.9443C6.50511 10.1526 6.37917 10.3705 6.17089 10.4238L3.25011 11.1649C2.84323 11.2666 2.52355 11.5863 2.41214 11.9932C2.30073 12.4001 2.42183 12.8312 2.72214 13.1266L4.87761 15.224C5.03261 15.3741 5.03261 15.626 4.87761 15.781L2.72698 17.8784C2.42667 18.1738 2.30558 18.6049 2.41698 19.0118C2.52839 19.4187 2.84808 19.7335 3.25495 19.8401L6.17089 20.5812C6.38401 20.6345 6.50995 20.8524 6.44698 21.0607L5.62839 23.9524C5.51214 24.3593 5.62839 24.7952 5.92386 25.0907C6.21933 25.3862 6.65526 25.5024 7.06214 25.3862L9.9587 24.5676C10.167 24.5095 10.385 24.6354 10.4382 24.8437L11.1793 27.7596C11.281 28.1665 11.6007 28.4862 12.0076 28.5976C12.4145 28.709 12.8456 28.5879 13.141 28.2876L15.2384 26.1321C15.3885 25.9771 15.6404 25.9771 15.7954 26.1321L17.8879 28.2876C18.1834 28.5879 18.6145 28.709 19.0214 28.5976C19.4282 28.4862 19.7431 28.1665 19.8496 27.7596L20.5907 24.8485C20.644 24.6354 20.862 24.5095 21.0703 24.5724L23.9668 25.391C24.3737 25.5073 24.8096 25.391 25.1051 25.0955C25.4006 24.8001 25.5168 24.3641 25.4006 23.9573L24.582 21.0607C24.5239 20.8524 24.6498 20.6345 24.8581 20.5812L27.774 19.8401C28.1809 19.7384 28.5006 19.4187 28.612 19.0118C28.7234 18.6049 28.6023 18.169 28.302 17.8784L26.1465 15.781C25.9915 15.6309 25.9915 15.379 26.1465 15.224L28.302 13.1266C28.6023 12.8312 28.7234 12.4001 28.612 11.9932C28.5006 11.5863 28.1809 11.2715 27.774 11.1649L24.8581 10.4238C24.645 10.3705 24.519 10.1526 24.582 9.9443L25.4006 7.04773C25.5168 6.64086 25.4006 6.20492 25.1051 5.90945C24.8096 5.61398 24.3737 5.49773 23.9668 5.61398L21.0703 6.43258C20.862 6.4907 20.644 6.36477 20.5907 6.15648L19.8496 3.2357C19.7479 2.82883 19.4282 2.50914 19.0214 2.39773C18.6145 2.28633 18.1834 2.40742 17.8879 2.70773L15.7906 4.86805C15.6404 5.02305 15.3885 5.02305 15.2335 4.86805L13.1362 2.71258Z" fill="#F9FAFB"/>
</svg>
