<svg width="61" height="61" viewBox="0 0 61 61" fill="none" xmlns="http://www.w3.org/2000/svg">
<rect width="61" height="61" rx="30.5" fill="#138023" fill-opacity="0.2"/>
<g clip-path="url(#clip0_1171_712)">
<path d="M36.4625 34.5376L30.5 40.5001L24.5375 34.5376C20.0688 34.7313 16.5 38.3876 16.5 42.9001V43.5001C16.5 45.1563 17.8438 46.5001 19.5 46.5001H41.5C43.1562 46.5001 44.5 45.1563 44.5 43.5001V42.9001C44.5 38.3876 40.9312 34.7313 36.4625 34.5376ZM17.35 19.4876L17.75 19.5813V23.2313C17.3125 23.4938 17 23.9501 17 24.5001C17 25.0251 17.2875 25.4626 17.6938 25.7313L16.7188 29.6251C16.6125 30.0563 16.85 30.5001 17.1938 30.5001H19.8063C20.15 30.5001 20.3875 30.0563 20.2812 29.6251L19.3063 25.7313C19.7125 25.4626 20 25.0251 20 24.5001C20 23.9501 19.6875 23.4938 19.25 23.2313V19.9438L23.375 20.9376C22.8375 22.0126 22.5 23.2126 22.5 24.5001C22.5 28.9188 26.0813 32.5001 30.5 32.5001C34.9188 32.5001 38.5 28.9188 38.5 24.5001C38.5 23.2126 38.1688 22.0126 37.625 20.9376L43.6437 19.4876C44.7812 19.2126 44.7812 17.7938 43.6437 17.5188L31.7437 14.6438C30.9312 14.4501 30.075 14.4501 29.2625 14.6438L17.35 17.5126C16.2188 17.7876 16.2188 19.2126 17.35 19.4876Z" fill="#138023"/>
</g>
<defs>
<clipPath id="clip0_1171_712">
<rect width="28" height="32" fill="white" transform="translate(16.5 14.5)"/>
</clipPath>
</defs>
</svg>
