<svg width="31" height="31" viewBox="0 0 31 31" fill="none" xmlns="http://www.w3.org/2000/svg">
<path d="M9.46052 24.8542C11.6139 24.8542 13.0543 25.6591 13.6898 26.113C13.9234 26.2425 14.5855 26.6317 14.7277 26.6444V7.02807C13.8847 5.45814 11.4063 4.18714 8.83775 4.18714C5.59382 4.18714 2.84368 6.05545 2.23364 7.31371V25.6336C2.23364 26.49 2.73961 26.8144 3.34964 26.8144C3.84232 26.8144 4.16671 26.6455 4.47837 26.3859C5.24396 25.6984 7.04695 24.8542 9.46052 24.8542ZM21.5527 24.8547C23.9657 24.8547 25.7566 25.6984 26.5349 26.3859C26.8327 26.6322 27.1576 26.8138 27.6503 26.8138C28.2604 26.8138 28.7663 26.49 28.7663 25.6336V7.31261C28.1563 6.05379 25.4189 4.18604 22.1749 4.18604C19.6064 4.18604 17.128 5.45704 16.2849 7.02696V26.671C16.4278 26.6577 17.0893 26.2558 17.3356 26.113C17.9584 25.6591 19.3988 24.8547 21.5527 24.8547Z" fill="#F9FAFB"/>
</svg>
