<svg width="55" height="55" viewBox="0 0 55 55" fill="none" xmlns="http://www.w3.org/2000/svg">
<rect width="55" height="55" rx="10" fill="#22408B" fill-opacity="0.2"/>
<path d="M21.6554 36.5525C23.7393 36.5525 25.1332 37.3314 25.7482 37.7707C25.9743 37.896 26.615 38.2726 26.7527 38.285V19.3014C25.9368 17.7821 23.5384 16.5521 21.0527 16.5521C17.9134 16.5521 15.252 18.3601 14.6616 19.5778V37.3067C14.6616 38.1355 15.1513 38.4494 15.7416 38.4494C16.2184 38.4494 16.5323 38.286 16.8339 38.0348C17.5748 37.3694 19.3197 36.5525 21.6554 36.5525ZM33.3575 36.553C35.6927 36.553 37.4257 37.3694 38.1789 38.0348C38.4672 38.2732 38.7816 38.4489 39.2584 38.4489C39.8488 38.4489 40.3384 38.1355 40.3384 37.3067V19.5767C39.748 18.3585 37.0989 16.551 33.9597 16.551C31.4739 16.551 29.0755 17.781 28.2597 19.3003V38.3107C28.3979 38.2978 29.038 37.9089 29.2764 37.7707C29.8791 37.3314 31.273 36.553 33.3575 36.553Z" fill="#22408B"/>
</svg>
