<svg width="31" height="31" viewBox="0 0 31 31" fill="none" xmlns="http://www.w3.org/2000/svg">
<path d="M14.9167 3C22.0505 3 27.8333 8.78279 27.8333 15.9167C27.8333 23.0505 22.0505 28.8333 14.9167 28.8333C7.78279 28.8333 2 23.0505 2 15.9167C2 8.78279 7.78279 3 14.9167 3ZM20.8532 9.98017C20.7252 9.85224 20.5564 9.77345 20.3761 9.75762C20.1959 9.7418 20.0159 9.78995 19.8676 9.89363C16.1356 12.514 14.0284 14.0648 13.5462 14.5462C13.1827 14.9097 12.9785 15.4026 12.9785 15.9167C12.9785 16.4307 13.1827 16.9237 13.5462 17.2871C13.9097 17.6506 14.4026 17.8548 14.9167 17.8548C15.4307 17.8548 15.9237 17.6506 16.2871 17.2871C16.5696 17.0038 18.1187 14.8954 20.9345 10.9618C21.0393 10.815 21.0887 10.6358 21.0738 10.4561C21.0589 10.2763 20.9807 10.1077 20.8532 9.98017ZM22.0208 14.625C21.6783 14.625 21.3497 14.7611 21.1075 15.0033C20.8653 15.2456 20.7292 15.5741 20.7292 15.9167C20.7292 16.2592 20.8653 16.5878 21.1075 16.83C21.3497 17.0722 21.6783 17.2083 22.0208 17.2083C22.3634 17.2083 22.6919 17.0722 22.9342 16.83C23.1764 16.5878 23.3125 16.2592 23.3125 15.9167C23.3125 15.5741 23.1764 15.2456 22.9342 15.0033C22.6919 14.7611 22.3634 14.625 22.0208 14.625ZM7.8125 14.625C7.46993 14.625 7.14139 14.7611 6.89915 15.0033C6.65692 15.2456 6.52083 15.5741 6.52083 15.9167C6.52083 16.2592 6.65692 16.5878 6.89915 16.83C7.14139 17.0722 7.46993 17.2083 7.8125 17.2083C8.15507 17.2083 8.48361 17.0722 8.72585 16.83C8.96808 16.5878 9.10417 16.2592 9.10417 15.9167C9.10417 15.5741 8.96808 15.2456 8.72585 15.0033C8.48361 14.7611 8.15507 14.625 7.8125 14.625ZM10.8066 9.98017C10.6874 9.8568 10.5449 9.7584 10.3873 9.6907C10.2297 9.62301 10.0602 9.58738 9.88873 9.58589C9.71722 9.58439 9.54713 9.61708 9.38839 9.68202C9.22965 9.74697 9.08543 9.84288 8.96416 9.96416C8.84288 10.0854 8.74697 10.2297 8.68202 10.3884C8.61708 10.5471 8.58439 10.7172 8.58589 10.8887C8.58738 11.0602 8.62301 11.2297 8.6907 11.3873C8.7584 11.5449 8.8568 11.6874 8.98017 11.8066C9.22378 12.0419 9.55006 12.1721 9.88873 12.1691C10.2274 12.1662 10.5514 12.0303 10.7908 11.7908C11.0303 11.5514 11.1662 11.2274 11.1691 10.8887C11.1721 10.5501 11.0419 10.2238 10.8066 9.98017ZM14.9167 7.52083C14.5741 7.52083 14.2456 7.65692 14.0033 7.89915C13.7611 8.14139 13.625 8.46993 13.625 8.8125C13.625 9.15507 13.7611 9.48361 14.0033 9.72585C14.2456 9.96808 14.5741 10.1042 14.9167 10.1042C15.2592 10.1042 15.5878 9.96808 15.83 9.72585C16.0722 9.48361 16.2083 9.15507 16.2083 8.8125C16.2083 8.46993 16.0722 8.14139 15.83 7.89915C15.5878 7.65692 15.2592 7.52083 14.9167 7.52083Z" fill="#F9FAFB"/>
</svg>
