<svg width="16" height="16" viewBox="0 0 16 16" fill="none" xmlns="http://www.w3.org/2000/svg">
<path d="M3.54167 0H4.95833V0.708333H3.54167V0ZM10.625 0H12.0417V0.708333H10.625V0ZM14.875 2.83333V2.125H12.75V0.708333H12.0417V4.25H10.625V0.708333H9.91667V2.125H5.66667V0.708333H4.95833V4.25H3.54167V0.708333H2.83333V2.125H0.708333V2.83333H0V14.875H0.708333V15.5833H14.875V14.875H15.5833V2.83333H14.875ZM14.1667 4.95833V7.08333H12.0417V4.95833H14.1667ZM14.1667 10.625H12.0417V8.5H14.1667V10.625ZM14.1667 14.1667H12.0417V12.0417H14.1667V14.1667ZM1.41667 12.0417H3.54167V14.1667H1.41667V12.0417ZM1.41667 8.5H3.54167V10.625H1.41667V8.5ZM10.625 10.625H8.5V8.5H10.625V10.625ZM7.08333 10.625H4.95833V8.5H7.08333V10.625ZM4.95833 12.0417H7.08333V14.1667H4.95833V12.0417ZM8.5 12.0417H10.625V14.1667H8.5V12.0417ZM10.625 7.08333H8.5V4.95833H10.625V7.08333ZM7.08333 4.95833V7.08333H4.95833V4.95833H7.08333ZM3.54167 7.08333H1.41667V4.95833H3.54167V7.08333Z" fill="black" fill-opacity="0.7"/>
</svg>
