<svg width="26" height="26" viewBox="0 0 26 26" fill="none" xmlns="http://www.w3.org/2000/svg">
<path d="M14.625 1.625C14.625 0.726172 13.8988 0 13 0C12.1012 0 11.375 0.726172 11.375 1.625V13.9496L7.64766 10.2223C7.01289 9.5875 5.98203 9.5875 5.34727 10.2223C4.7125 10.857 4.7125 11.8879 5.34727 12.5227L11.8473 19.0227C12.482 19.6574 13.5129 19.6574 14.1477 19.0227L20.6477 12.5227C21.2824 11.8879 21.2824 10.857 20.6477 10.2223C20.0129 9.5875 18.982 9.5875 18.3473 10.2223L14.625 13.9496V1.625ZM3.25 17.875C1.45742 17.875 0 19.3324 0 21.125V22.75C0 24.5426 1.45742 26 3.25 26H22.75C24.5426 26 26 24.5426 26 22.75V21.125C26 19.3324 24.5426 17.875 22.75 17.875H17.5957L15.2953 20.1754C14.0258 21.4449 11.9691 21.4449 10.6996 20.1754L8.4043 17.875H3.25ZM21.9375 20.7188C22.2607 20.7188 22.5707 20.8472 22.7993 21.0757C23.0278 21.3043 23.1562 21.6143 23.1562 21.9375C23.1562 22.2607 23.0278 22.5707 22.7993 22.7993C22.5707 23.0278 22.2607 23.1562 21.9375 23.1562C21.6143 23.1562 21.3043 23.0278 21.0757 22.7993C20.8472 22.5707 20.7188 22.2607 20.7188 21.9375C20.7188 21.6143 20.8472 21.3043 21.0757 21.0757C21.3043 20.8472 21.6143 20.7188 21.9375 20.7188Z" fill="#FF6900"/>
</svg>
