<svg width="61" height="61" viewBox="0 0 61 61" fill="none" xmlns="http://www.w3.org/2000/svg">
<rect width="61" height="61" rx="30.5" fill="#22408B" fill-opacity="0.2"/>
<path fill-rule="evenodd" clip-rule="evenodd" d="M49.6998 30.4998C49.6998 35.592 47.677 40.4756 44.0763 44.0763C40.4756 47.677 35.592 49.6998 30.4998 49.6998C25.4076 49.6998 20.5241 47.677 16.9234 44.0763C13.3227 40.4756 11.2998 35.592 11.2998 30.4998C11.2998 25.4076 13.3227 20.5241 16.9234 16.9234C20.5241 13.3227 25.4076 11.2998 30.4998 11.2998C35.592 11.2998 40.4756 13.3227 44.0763 16.9234C47.677 20.5241 49.6998 25.4076 49.6998 30.4998ZM27.9558 23.1558C27.7886 23.323 27.5901 23.4556 27.3717 23.5461C27.1532 23.6366 26.9191 23.6832 26.6826 23.6832C26.4462 23.6832 26.212 23.6366 25.9936 23.5461C25.7751 23.4556 25.5766 23.323 25.4094 23.1558C25.2422 22.9886 25.1096 22.7901 25.0191 22.5717C24.9286 22.3532 24.882 22.1191 24.882 21.8826C24.882 21.6462 24.9286 21.412 25.0191 21.1936C25.1096 20.9751 25.2422 20.7766 25.4094 20.6094C26.1923 19.8264 27.1452 19.2345 28.1941 18.8797C29.2429 18.5249 30.3595 18.4169 31.4569 18.5639C32.5544 18.7109 33.6031 19.109 34.5216 19.7273C35.4402 20.3456 36.2037 21.1674 36.7529 22.1289C37.3021 23.0903 37.6222 24.1654 37.6882 25.2707C37.7542 26.376 37.5645 27.4816 37.1337 28.5016C36.7028 29.5216 36.0426 30.4285 35.2042 31.1517C34.3658 31.875 33.3719 32.3952 32.2998 32.6718V33.4998C32.2998 33.9772 32.1102 34.435 31.7726 34.7726C31.435 35.1102 30.9772 35.2998 30.4998 35.2998C30.0224 35.2998 29.5646 35.1102 29.227 34.7726C28.8894 34.435 28.6998 33.9772 28.6998 33.4998V32.2998C28.6998 30.5718 30.0678 29.487 31.2942 29.211C31.8391 29.0884 32.348 28.8407 32.7806 28.4875C33.2133 28.1343 33.5578 27.6853 33.7869 27.176C34.0161 26.6667 34.1236 26.111 34.101 25.553C34.0784 24.9949 33.9262 24.4498 33.6566 23.9607C33.3869 23.4716 33.0072 23.0519 32.5474 22.7349C32.0875 22.4179 31.5603 22.2122 31.0073 22.1342C30.4542 22.0561 29.8906 22.1077 29.361 22.2851C28.8314 22.4624 28.3503 22.7605 27.9558 23.1558ZM30.4998 42.4998C31.1363 42.4998 31.7468 42.2469 32.1969 41.7969C32.6469 41.3468 32.8998 40.7363 32.8998 40.0998C32.8998 39.4633 32.6469 38.8528 32.1969 38.4028C31.7468 37.9527 31.1363 37.6998 30.4998 37.6998C29.8633 37.6998 29.2528 37.9527 28.8027 38.4028C28.3527 38.8528 28.0998 39.4633 28.0998 40.0998C28.0998 40.7363 28.3527 41.3468 28.8027 41.7969C29.2528 42.2469 29.8633 42.4998 30.4998 42.4998Z" fill="#22408B"/>
</svg>
