<svg width="24" height="24" viewBox="0 0 24 24" fill="none" xmlns="http://www.w3.org/2000/svg">
<path d="M15.9931 19.9912V3.99826C15.9931 3.46807 15.7824 2.95958 15.4075 2.58467C15.0326 2.20977 14.5241 1.99915 13.9939 1.99915H9.9957C9.4655 1.99915 8.95702 2.20977 8.58211 2.58467C8.2072 2.95958 7.99658 3.46807 7.99658 3.99826V19.9912" stroke="#AD46FF" stroke-width="1.99912" stroke-linecap="round" stroke-linejoin="round"/>
<path d="M19.9911 5.99731H3.99814C2.89406 5.99731 1.99902 6.89235 1.99902 7.99643V17.992C1.99902 19.0961 2.89406 19.9911 3.99814 19.9911H19.9911C21.0952 19.9911 21.9902 19.0961 21.9902 17.992V7.99643C21.9902 6.89235 21.0952 5.99731 19.9911 5.99731Z" stroke="#AD46FF" stroke-width="1.99912" stroke-linecap="round" stroke-linejoin="round"/>
</svg>
