<svg width="61" height="61" viewBox="0 0 61 61" fill="none" xmlns="http://www.w3.org/2000/svg">
<rect width="61" height="61" rx="30.5" fill="#9A1CB9" fill-opacity="0.2"/>
<path d="M31.0872 43.416L28.3864 35.666H17.5835L20.2842 43.416H31.0872ZM31.0872 43.416H36.4886H31.0872ZM31.0872 31.791V31.1452C31.0872 28.7091 31.0872 27.4923 30.2959 26.7354C29.5045 25.9785 28.2325 25.9785 25.6857 25.9785C23.1389 25.9785 21.8669 25.9785 21.0755 26.7354C20.2842 27.4923 20.2842 28.7091 20.2842 31.1452V31.791" fill="#9A1CB9"/>
<path d="M31.0872 43.416L28.3864 35.666H17.5835L20.2842 43.416H31.0872ZM31.0872 43.416H36.4886M31.0872 31.791V31.1452C31.0872 28.7091 31.0872 27.4923 30.2959 26.7354C29.5045 25.9785 28.2325 25.9785 25.6857 25.9785C23.1389 25.9785 21.8669 25.9785 21.0755 26.7354C20.2842 27.4923 20.2842 28.7091 20.2842 31.1452V31.791" stroke="#9A1CB9" stroke-width="1.5" stroke-linecap="round" stroke-linejoin="round"/>
<path d="M40.5394 31.7913C40.5394 32.4765 40.2549 33.1336 39.7484 33.618C39.2419 34.1025 38.5549 34.3747 37.8387 34.3747C37.1224 34.3747 36.4354 34.1025 35.929 33.618C35.4225 33.1336 35.1379 32.4765 35.1379 31.7913C35.1379 31.1062 35.4225 30.4491 35.929 29.9647C36.4354 29.4802 37.1224 29.208 37.8387 29.208C38.5549 29.208 39.2419 29.4802 39.7484 29.9647C40.2549 30.4491 40.5394 31.1062 40.5394 31.7913ZM28.3861 20.1663C28.3861 20.8515 28.1015 21.5086 27.5951 21.993C27.0886 22.4775 26.4016 22.7497 25.6854 22.7497C24.9691 22.7497 24.2821 22.4775 23.7756 21.993C23.2692 21.5086 22.9846 20.8515 22.9846 20.1663C22.9846 19.4812 23.2692 18.8241 23.7756 18.3396C24.2821 17.8552 24.9691 17.583 25.6854 17.583C26.4016 17.583 27.0886 17.8552 27.5951 18.3396C28.1015 18.8241 28.3861 19.4812 28.3861 20.1663Z" fill="#9A1CB9" stroke="#9A1CB9" stroke-width="1.5"/>
<path d="M33.7878 37.6035H41.89C42.6063 37.6035 43.2933 37.8757 43.7998 38.3602C44.3062 38.8446 44.5908 39.5017 44.5908 40.1868V40.8327C44.5908 41.5178 44.3062 42.1749 43.7998 42.6594C43.2933 43.1438 42.6063 43.416 41.89 43.416H40.5397" stroke="#9A1CB9" stroke-width="1.5" stroke-linecap="round"/>
</svg>
