<svg width="16" height="20" viewBox="0 0 16 20" fill="none" xmlns="http://www.w3.org/2000/svg">
<path d="M8.36439 0.0647285C7.96922 -0.0215762 7.56365 -0.0215762 7.16849 0.0647285L0.669013 1.47187C0.280777 1.55442 0 1.92591 0 2.35368C0 2.74017 0.225315 3.07789 0.554622 3.20172V5.95596L0.0103993 8.90533C0.00346649 8.9391 0 8.97662 0 9.01415C0 9.31434 0.225315 9.56199 0.506092 9.56199H1.71586C1.99317 9.56199 2.22195 9.31809 2.22195 9.01415C2.22195 8.97662 2.21849 8.94285 2.21155 8.90533L1.66387 5.95596V3.45312L3.32773 3.81335V5.95596C3.32773 8.60889 5.31397 10.759 7.76471 10.759C10.2154 10.759 12.2017 8.60889 12.2017 5.95596V3.81335L14.8604 3.23924C15.2486 3.15293 15.5294 2.78145 15.5294 2.35368C15.5294 1.92591 15.2486 1.55442 14.8604 1.47187L8.36439 0.0647285ZM7.76471 8.95786C6.23256 8.95786 4.9916 7.61451 4.9916 5.95596H10.5378C10.5378 7.61451 9.29685 8.95786 7.76471 8.95786ZM4.16313 12.5639C2.03477 13.6221 0.554622 15.9485 0.554622 18.6503C0.554622 19.2656 1.01565 19.7647 1.58414 19.7647H6.93277V14.2862L4.94307 12.6727C4.71775 12.4888 4.41618 12.4401 4.15966 12.5676L4.16313 12.5639ZM8.59664 19.7647H13.9453C14.5138 19.7647 14.9748 19.2656 14.9748 18.6503C14.9748 15.9485 13.4946 13.6221 11.3663 12.5676C11.1098 12.4401 10.8082 12.4888 10.5829 12.6727L8.59317 14.2862V19.7647H8.59664Z" fill="black" fill-opacity="0.7"/>
</svg>
