<svg width="32" height="32" viewBox="0 0 32 32" fill="none" xmlns="http://www.w3.org/2000/svg">
<path d="M26.6666 15.9999H13.9999M23.9999 19.9999L27.9999 15.9999L23.9999 11.9999M17.3333 9.33325V7.99992C17.3333 7.29267 17.0523 6.6144 16.5522 6.1143C16.0521 5.6142 15.3738 5.33325 14.6666 5.33325H7.99992C7.29267 5.33325 6.6144 5.6142 6.1143 6.1143C5.6142 6.6144 5.33325 7.29267 5.33325 7.99992V23.9999C5.33325 24.7072 5.6142 25.3854 6.1143 25.8855C6.6144 26.3856 7.29267 26.6666 7.99992 26.6666H14.6666C15.3738 26.6666 16.0521 26.3856 16.5522 25.8855C17.0523 25.3854 17.3333 24.7072 17.3333 23.9999V22.6666" stroke="#F9FAFB" stroke-width="2" stroke-linecap="round" stroke-linejoin="round"/>
</svg>
