<svg width="24" height="24" viewBox="0 0 24 24" fill="none" xmlns="http://www.w3.org/2000/svg">
<g clip-path="url(#clip0_5_6051)">
<path d="M12.9917 21.9129L10.9996 15.9366H3.03125L5.02334 21.9129H12.9917ZM12.9917 21.9129H16.9759M12.9917 12.9485V12.4505C12.9917 10.5719 12.9917 9.63367 12.408 9.04999C11.8243 8.46631 10.886 8.46631 9.00751 8.46631C7.12897 8.46631 6.1907 8.46631 5.60702 9.04999C5.02334 9.63367 5.02334 10.5719 5.02334 12.4505V12.9485" stroke="black" stroke-width="1.5" stroke-linecap="round" stroke-linejoin="round"/>
<path d="M19.9642 12.9487C19.9642 13.477 19.7543 13.9837 19.3807 14.3573C19.0071 14.7309 18.5004 14.9407 17.9721 14.9407C17.4438 14.9407 16.9371 14.7309 16.5635 14.3573C16.1899 13.9837 15.98 13.477 15.98 12.9487C15.98 12.4203 16.1899 11.9136 16.5635 11.54C16.9371 11.1665 17.4438 10.9566 17.9721 10.9566C18.5004 10.9566 19.0071 11.1665 19.3807 11.54C19.7543 11.9136 19.9642 12.4203 19.9642 12.9487ZM10.9998 3.98427C10.9998 4.51261 10.7899 5.0193 10.4163 5.39289C10.0427 5.76648 9.53604 5.97636 9.00771 5.97636C8.47938 5.97636 7.97268 5.76648 7.59909 5.39289C7.2255 5.0193 7.01563 4.51261 7.01562 3.98427C7.01562 3.45594 7.2255 2.94924 7.59909 2.57566C7.97268 2.20207 8.47938 1.99219 9.00771 1.99219C9.53604 1.99219 10.0427 2.20207 10.4163 2.57566C10.7899 2.94924 10.9998 3.45594 10.9998 3.98427Z" stroke="black" stroke-width="1.5"/>
<path d="M14.9834 17.4307H20.9597C21.488 17.4307 21.9947 17.6405 22.3683 18.0141C22.7419 18.3877 22.9517 18.8944 22.9517 19.4228V19.9208C22.9517 20.4491 22.7419 20.9558 22.3683 21.3294C21.9947 21.703 21.488 21.9129 20.9597 21.9129H19.9636" stroke="black" stroke-width="1.5" stroke-linecap="round"/>
</g>
<defs>
<clipPath id="clip0_5_6051">
<rect width="23.905" height="23.905" fill="white"/>
</clipPath>
</defs>
</svg>
