<svg width="40" height="40" viewBox="0 0 40 40" fill="none" xmlns="http://www.w3.org/2000/svg">
<rect width="40" height="40" rx="5" fill="#10A3D1" fill-opacity="0.2"/>
<mask id="mask0_1181_764" style="mask-type:luminance" maskUnits="userSpaceOnUse" x="11" y="7" width="18" height="26">
<path d="M12.125 9.875C12.125 9.57663 12.2435 9.29048 12.4545 9.0795C12.6655 8.86853 12.9516 8.75 13.25 8.75H26.75C27.0484 8.75 27.3345 8.86853 27.5455 9.0795C27.7565 9.29048 27.875 9.57663 27.875 9.875V31.25L23.9375 28.4375L20 31.25L16.0625 28.4375L12.125 31.25V9.875Z" fill="white" stroke="white" stroke-width="2" stroke-linecap="round" stroke-linejoin="round"/>
<path d="M16.625 18.875H23.375M16.625 23.375H23.375M16.625 14.375H23.375" stroke="black" stroke-width="2" stroke-linecap="round" stroke-linejoin="round"/>
</mask>
<g mask="url(#mask0_1181_764)">
<path d="M6.5 6.5H33.5V33.5H6.5V6.5Z" fill="#10A3D1"/>
</g>
</svg>
