<svg width="21" height="21" viewBox="0 0 21 21" fill="none" xmlns="http://www.w3.org/2000/svg">
<path fill-rule="evenodd" clip-rule="evenodd" d="M10.5 21C11.8789 21 13.2443 20.7284 14.5182 20.2007C15.7921 19.6731 16.9496 18.8996 17.9246 17.9246C18.8996 16.9496 19.6731 15.7921 20.2007 14.5182C20.7284 13.2443 21 11.8789 21 10.5C21 9.12112 20.7284 7.75574 20.2007 6.48182C19.6731 5.20791 18.8996 4.05039 17.9246 3.07538C16.9496 2.10036 15.7921 1.32694 14.5182 0.799265C13.2443 0.27159 11.8789 -2.05469e-08 10.5 0C7.71523 4.14964e-08 5.04451 1.10625 3.07538 3.07538C1.10625 5.04451 0 7.71523 0 10.5C0 13.2848 1.10625 15.9555 3.07538 17.9246C5.04451 19.8938 7.71523 21 10.5 21ZM9.08017 5.82167L15.6648 9.48033C15.8466 9.5814 15.9981 9.72923 16.1035 9.90851C16.209 10.0878 16.2646 10.292 16.2646 10.5C16.2646 10.708 16.209 10.9122 16.1035 11.0915C15.9981 11.2708 15.8466 11.4186 15.6648 11.5197L9.08017 15.1783C8.86696 15.2968 8.62648 15.3576 8.38257 15.3546C8.13866 15.3515 7.89977 15.2848 7.68958 15.161C7.47939 15.0372 7.30518 14.8607 7.18423 14.6489C7.06328 14.437 6.99977 14.1973 7 13.9533V7.04667C6.99977 6.80273 7.06328 6.56298 7.18423 6.35114C7.30518 6.13931 7.47939 5.96276 7.68958 5.83898C7.89977 5.7152 8.13866 5.64848 8.38257 5.64545C8.62648 5.64241 8.86696 5.70316 9.08017 5.82167Z" fill="black"/>
</svg>
