<svg width="31" height="31" viewBox="0 0 31 31" fill="none" xmlns="http://www.w3.org/2000/svg">
<path fill-rule="evenodd" clip-rule="evenodd" d="M15.5 2.06665C17.264 2.06664 19.0109 2.4141 20.6407 3.08918C22.2705 3.76426 23.7514 4.75375 24.9988 6.00115C26.2462 7.24855 27.2357 8.72943 27.9108 10.3592C28.5859 11.989 28.9333 13.7359 28.9333 15.5C28.9333 22.919 22.919 28.9333 15.5 28.9333C8.08098 28.9333 2.06665 22.919 2.06665 15.5C2.06665 8.08098 8.08098 2.06665 15.5 2.06665ZM16.8433 16.8433H14.1566C10.8309 16.8433 7.97576 18.8575 6.74428 21.7327C8.69278 24.465 11.8883 26.2466 15.5 26.2466C19.1116 26.2466 22.3071 24.465 24.2557 21.7325C23.0242 18.8575 20.169 16.8433 16.8433 16.8433ZM15.5 6.09665C13.2743 6.09665 11.47 7.90095 11.47 10.1266C11.47 12.3523 13.2743 14.1566 15.5 14.1566C17.7256 14.1566 19.5299 12.3523 19.5299 10.1266C19.5299 7.90095 17.7257 6.09665 15.5 6.09665Z" fill="#F9FAFB"/>
</svg>
