<svg width="16" height="16" viewBox="0 0 16 16" fill="none" xmlns="http://www.w3.org/2000/svg">
<g clip-path="url(#clip0_57_835)">
<path d="M9.68394 14.4473C9.70925 14.5103 9.75325 14.5642 9.81003 14.6015C9.86682 14.6389 9.93367 14.658 10.0016 14.6562C10.0696 14.6545 10.1353 14.632 10.1901 14.5918C10.2449 14.5516 10.2861 14.4956 10.3082 14.4313L14.6385 1.77338C14.6598 1.71435 14.6639 1.65047 14.6502 1.58921C14.6366 1.52795 14.6058 1.47185 14.5614 1.42747C14.517 1.38309 14.4609 1.35227 14.3996 1.33861C14.3384 1.32495 14.2745 1.32902 14.2155 1.35034L1.55757 5.68067C1.49328 5.70272 1.43727 5.74391 1.39706 5.79871C1.35685 5.8535 1.33437 5.91929 1.33263 5.98723C1.33089 6.05518 1.34997 6.12203 1.38732 6.17881C1.42467 6.2356 1.4785 6.2796 1.54158 6.30491L6.82459 8.42344C6.9916 8.49031 7.14333 8.5903 7.27065 8.71739C7.39798 8.84448 7.49824 8.99604 7.56541 9.16293L9.68394 14.4473Z" stroke="white" stroke-width="1.33241" stroke-linecap="round" stroke-linejoin="round"/>
<path d="M14.5593 1.4303L7.271 8.71792" stroke="white" stroke-width="1.33241" stroke-linecap="round" stroke-linejoin="round"/>
</g>
<defs>
<clipPath id="clip0_57_835">
<rect width="15.9889" height="15.9889" fill="white"/>
</clipPath>
</defs>
</svg>
