<svg width="23" height="23" viewBox="0 0 23 23" fill="none" xmlns="http://www.w3.org/2000/svg">
<path d="M22.3943 0.356867C22.2281 0.190752 22.0175 0.0762041 21.7877 0.0270126C21.558 -0.0221788 21.3189 -0.00391651 21.0993 0.079601L0.785307 7.76839H0.781244C0.547021 7.85848 0.346317 8.01867 0.206544 8.22709C0.0667709 8.43551 -0.00525673 8.682 0.000298817 8.93289C0.00585436 9.18377 0.0887222 9.42683 0.237584 9.62886C0.386446 9.83089 0.594045 9.98204 0.832026 10.0617L0.852846 10.0683L7.82511 13.0456C7.9611 13.0869 8.10555 13.0918 8.24402 13.0598C8.38249 13.0278 8.51015 12.96 8.61425 12.8633L19.8044 2.43636C19.8378 2.40302 19.8773 2.37657 19.9209 2.35852C19.9645 2.34048 20.0112 2.33119 20.0583 2.33119C20.1055 2.33119 20.1522 2.34048 20.1957 2.35852C20.2393 2.37657 20.2789 2.40302 20.3122 2.43636C20.3456 2.4697 20.372 2.50929 20.3901 2.55285C20.4081 2.59642 20.4174 2.64311 20.4174 2.69026C20.4174 2.73742 20.4081 2.78411 20.3901 2.82768C20.372 2.87124 20.3456 2.91083 20.3122 2.94417L9.8848 14.1292C9.78805 14.2334 9.7203 14.361 9.68831 14.4995C9.65632 14.638 9.66121 14.7824 9.7025 14.9184L12.6808 21.8947C12.6839 21.9049 12.6869 21.914 12.6905 21.9237C12.853 22.3944 13.2643 22.7265 13.7614 22.7489H13.8122C14.0632 22.7503 14.3088 22.6762 14.5171 22.5362C14.7254 22.3962 14.8868 22.1967 14.9802 21.9638L22.668 1.65534C22.7527 1.4356 22.7719 1.19603 22.7233 0.965586C22.6748 0.735147 22.5605 0.523717 22.3943 0.356867Z" fill="white"/>
</svg>
