<svg width="31" height="31" viewBox="0 0 31 31" fill="none" xmlns="http://www.w3.org/2000/svg">
<path d="M1.6145 14.5958C1.6145 7.02215 7.87909 0.96875 15.4999 0.96875C23.1208 0.96875 29.3853 7.02215 29.3853 14.5958V20.0777C29.3853 20.1961 29.3795 20.313 29.3679 20.4284C29.3795 20.5059 29.3853 20.5853 29.3853 20.6667C29.3853 21.939 29.2284 23.3256 29.0753 24.3847C28.8351 26.0426 27.8541 27.6869 26.058 28.3979C24.125 29.1639 20.7686 30.0312 15.4999 30.0312C15.0717 30.0312 14.661 29.8611 14.3582 29.5583C14.0554 29.2556 13.8853 28.8449 13.8853 28.4167C13.8853 27.9885 14.0554 27.5778 14.3582 27.275C14.661 26.9722 15.0717 26.8021 15.4999 26.8021C20.4102 26.8021 23.3565 25.9948 24.869 25.3961C25.3611 25.2011 25.7667 24.7005 25.8791 23.9223C25.8933 23.8237 25.9073 23.7234 25.9211 23.6214C25.013 23.8235 23.9642 24.0185 22.9212 24.1277C21.5507 24.2717 20.2145 23.4457 19.9646 21.9577C19.8186 21.0923 19.6978 19.8439 19.6978 18.0827C19.6978 16.3228 19.8186 15.075 19.9646 14.209C20.2145 12.721 21.5507 11.895 22.9212 12.039C23.4714 12.0965 24.0236 12.1778 24.5551 12.2715C23.5037 8.3939 19.8806 5.48958 15.4999 5.48958C11.1192 5.48958 7.49675 8.3939 6.44469 12.2715C6.9865 12.1752 7.53148 12.0976 8.07865 12.039C9.44911 11.895 10.7853 12.721 11.0359 14.209C11.1812 15.0744 11.302 16.3228 11.302 18.0833C11.302 19.8439 11.1812 21.0916 11.0359 21.9577C10.7853 23.4457 9.44911 24.2717 8.07865 24.1277C6.65911 23.9791 5.23052 23.6724 4.15844 23.4044C2.60844 23.0162 1.6145 21.6109 1.6145 20.0783V14.5958Z" fill="#F9FAFB"/>
</svg>
