<svg width="61" height="61" viewBox="0 0 61 61" fill="none" xmlns="http://www.w3.org/2000/svg">
<rect width="61" height="61" rx="30.5" fill="#BC120E" fill-opacity="0.2"/>
<g clip-path="url(#clip0_1171_701)">
<path d="M20.4518 16.2834C19.9138 15.8643 19.1491 15.9152 18.662 16.3967L16.3964 18.6623C15.9149 19.1437 15.864 19.9084 16.2774 20.4521L20.8087 26.3428C21.0636 26.677 21.4657 26.8752 21.8849 26.8752H24.9491L31.1229 33.049C30.2903 34.6916 30.5565 36.7533 31.9329 38.124L38.2767 44.4678C38.9847 45.1758 40.1345 45.1758 40.8425 44.4678L44.4675 40.8428C45.1755 40.1348 45.1755 38.985 44.4675 38.277L38.1237 31.9332C36.753 30.5625 34.6913 30.2906 33.0487 31.1232L26.8749 24.9494V21.8852C26.8749 21.4603 26.6767 21.0639 26.3425 20.809L20.4518 16.2834ZM17.127 38.4355C16.4077 39.1549 15.9999 40.1348 15.9999 41.1543C15.9999 43.2783 17.7218 45.0002 19.8458 45.0002C20.8653 45.0002 21.8452 44.5924 22.5645 43.873L29.2368 37.2008C28.795 36.017 28.727 34.7312 29.0329 33.5135L25.5382 30.0187L17.127 38.4355ZM44.9999 24.1564C44.9999 23.5617 44.9376 22.984 44.8186 22.4289C44.6827 21.7945 43.9067 21.6303 43.4479 22.0891L39.8286 25.7084C39.6587 25.8783 39.4265 25.9746 39.1886 25.9746L35.9374 25.9689C35.439 25.9689 35.0311 25.5611 35.0311 25.0627V21.8115C35.0311 21.5736 35.1274 21.3414 35.2974 21.1715L38.9167 17.5521C39.3755 17.0934 39.2112 16.3174 38.5769 16.1814C38.0161 16.0625 37.4384 16.0002 36.8436 16.0002C32.3407 16.0002 28.6874 19.6535 28.6874 24.1564V24.2018L33.5188 29.0332C35.5579 28.5178 37.8122 29.0615 39.4095 30.6588L40.2987 31.548C43.0741 30.2453 44.9999 27.4246 44.9999 24.1564ZM19.1718 40.4689C19.1718 40.1084 19.315 39.7627 19.5699 39.5077C19.8249 39.2528 20.1706 39.1096 20.5311 39.1096C20.8917 39.1096 21.2374 39.2528 21.4924 39.5077C21.7473 39.7627 21.8905 40.1084 21.8905 40.4689C21.8905 40.8295 21.7473 41.1752 21.4924 41.4302C21.2374 41.6851 20.8917 41.8283 20.5311 41.8283C20.1706 41.8283 19.8249 41.6851 19.5699 41.4302C19.315 41.1752 19.1718 40.8295 19.1718 40.4689Z" fill="#BC120E"/>
</g>
<defs>
<clipPath id="clip0_1171_701">
<rect width="29" height="29" fill="white" transform="translate(16 16)"/>
</clipPath>
</defs>
</svg>
