<svg width="24" height="24" viewBox="0 0 24 24" fill="none" xmlns="http://www.w3.org/2000/svg">
<path d="M14.6937 6.29723C14.5106 6.48408 14.408 6.73528 14.408 6.99692C14.408 7.25856 14.5106 7.50977 14.6937 7.69661L16.293 9.29591C16.4799 9.47906 16.7311 9.58164 16.9927 9.58164C17.2544 9.58164 17.5056 9.47906 17.6924 9.29591L21.4607 5.52757C21.9634 6.63827 22.1155 7.87577 21.897 9.07515C21.6785 10.2745 21.0996 11.3788 20.2376 12.2409C19.3755 13.1029 18.2712 13.6818 17.0718 13.9003C15.8724 14.1189 14.6349 13.9667 13.5242 13.4641L6.61728 20.371C6.21963 20.7687 5.68031 20.9921 5.11794 20.9921C4.55558 20.9921 4.01625 20.7687 3.61861 20.371C3.22096 19.9734 2.99756 19.4341 2.99756 18.8717C2.99756 18.3093 3.22096 17.77 3.61861 17.3724L10.5256 10.4654C10.0229 9.35469 9.87077 8.11719 10.0893 6.91781C10.3078 5.71843 10.8867 4.61413 11.7487 3.75207C12.6108 2.89002 13.7151 2.31116 14.9145 2.09262C16.1139 1.87409 17.3514 2.02628 18.4621 2.52889L14.7037 6.28723L14.6937 6.29723Z" stroke="#F85604" stroke-width="1.99912" stroke-linecap="round" stroke-linejoin="round"/>
</svg>
