<svg width="24" height="22" viewBox="0 0 24 22" fill="none" xmlns="http://www.w3.org/2000/svg">
<path fill-rule="evenodd" clip-rule="evenodd" d="M20.5833 2.16667H3.25C2.96268 2.16667 2.68713 2.2808 2.48397 2.48397C2.2808 2.68713 2.16667 2.96268 2.16667 3.25V18.4167C2.16667 18.704 2.2808 18.9795 2.48397 19.1827C2.68713 19.3859 2.96268 19.5 3.25 19.5H20.5833C20.8706 19.5 21.1462 19.3859 21.3494 19.1827C21.5525 18.9795 21.6667 18.704 21.6667 18.4167V3.25C21.6667 2.96268 21.5525 2.68713 21.3494 2.48397C21.1462 2.2808 20.8706 2.16667 20.5833 2.16667ZM3.25 0C2.38805 0 1.5614 0.34241 0.951903 0.951903C0.34241 1.5614 0 2.38805 0 3.25V18.4167C0 19.2786 0.34241 20.1053 0.951903 20.7148C1.5614 21.3243 2.38805 21.6667 3.25 21.6667H20.5833C21.4453 21.6667 22.2719 21.3243 22.8814 20.7148C23.4909 20.1053 23.8333 19.2786 23.8333 18.4167V3.25C23.8333 2.38805 23.4909 1.5614 22.8814 0.951903C22.2719 0.34241 21.4453 0 20.5833 0H3.25ZM5.41667 5.41667H7.58333V7.58333H5.41667V5.41667ZM10.8333 5.41667C10.546 5.41667 10.2705 5.5308 10.0673 5.73397C9.86413 5.93713 9.75 6.21268 9.75 6.5C9.75 6.78732 9.86413 7.06287 10.0673 7.26603C10.2705 7.4692 10.546 7.58333 10.8333 7.58333H17.3333C17.6206 7.58333 17.8962 7.4692 18.0994 7.26603C18.3025 7.06287 18.4167 6.78732 18.4167 6.5C18.4167 6.21268 18.3025 5.93713 18.0994 5.73397C17.8962 5.5308 17.6206 5.41667 17.3333 5.41667H10.8333ZM7.58333 9.75H5.41667V11.9167H7.58333V9.75ZM9.75 10.8333C9.75 10.546 9.86413 10.2705 10.0673 10.0673C10.2705 9.86414 10.546 9.75 10.8333 9.75H17.3333C17.6206 9.75 17.8962 9.86414 18.0994 10.0673C18.3025 10.2705 18.4167 10.546 18.4167 10.8333C18.4167 11.1207 18.3025 11.3962 18.0994 11.5994C17.8962 11.8025 17.6206 11.9167 17.3333 11.9167H10.8333C10.546 11.9167 10.2705 11.8025 10.0673 11.5994C9.86413 11.3962 9.75 11.1207 9.75 10.8333ZM7.58333 14.0833H5.41667V16.25H7.58333V14.0833ZM9.75 15.1667C9.75 14.8794 9.86413 14.6038 10.0673 14.4006C10.2705 14.1975 10.546 14.0833 10.8333 14.0833H17.3333C17.6206 14.0833 17.8962 14.1975 18.0994 14.4006C18.3025 14.6038 18.4167 14.8794 18.4167 15.1667C18.4167 15.454 18.3025 15.7295 18.0994 15.9327C17.8962 16.1359 17.6206 16.25 17.3333 16.25H10.8333C10.546 16.25 10.2705 16.1359 10.0673 15.9327C9.86413 15.7295 9.75 15.454 9.75 15.1667Z" fill="#F9FAFB"/>
</svg>
