<svg width="21" height="21" viewBox="0 0 21 21" fill="none" xmlns="http://www.w3.org/2000/svg">
<path d="M10.4585 0C8.38997 0 6.36793 0.613377 4.64805 1.76257C2.92817 2.91176 1.58768 4.54514 0.796107 6.45617C0.00453146 8.36721 -0.202581 10.4701 0.200961 12.4988C0.604503 14.5275 1.60057 16.3911 3.06321 17.8537C4.52585 19.3163 6.38937 20.3124 8.41811 20.7159C10.4469 21.1195 12.5497 20.9124 14.4607 20.1208C16.3718 19.3292 18.0051 17.9887 19.1543 16.2689C20.3035 14.549 20.9169 12.5269 20.9169 10.4585C20.9142 7.68553 19.8115 5.02695 17.8507 3.06619C15.89 1.10544 13.2314 0.00270134 10.4585 0ZM14.4174 14.4174C14.3229 14.5138 14.2102 14.5905 14.0858 14.643C13.9615 14.6956 13.8279 14.7229 13.6929 14.7235C13.4238 14.7196 13.1671 14.6096 12.9787 14.4174L9.44832 10.887V4.00992C9.44832 3.73931 9.55582 3.47979 9.74717 3.28844C9.93852 3.09709 10.198 2.98959 10.4687 2.98959C10.7393 2.98959 10.9988 3.09709 11.1901 3.28844C11.3815 3.47979 11.489 3.73931 11.489 4.00992V10.0503L14.4174 12.9787C14.6074 13.1699 14.7141 13.4285 14.7141 13.698C14.7141 13.9676 14.6074 14.2262 14.4174 14.4174Z" fill="black"/>
</svg>
