<svg width="24" height="24" viewBox="0 0 24 24" fill="none" xmlns="http://www.w3.org/2000/svg">
<path d="M18.4196 8.2199C17.8086 6.8159 16.7541 5.65097 15.4177 4.90362C14.0813 4.15627 12.5367 3.86773 11.0206 4.0822C9.50452 4.29668 8.10057 5.00235 7.0239 6.09107C5.94723 7.17979 5.25723 8.59151 5.05965 10.1099C4.10623 10.3382 3.26987 10.9087 2.70938 11.7131C2.1489 12.5174 1.90333 13.4996 2.01931 14.4731C2.13529 15.4466 2.60474 16.3436 3.33851 16.9938C4.07229 17.6439 5.01928 18.002 5.99965 17.9999C6.26486 17.9999 6.51922 17.8945 6.70675 17.707C6.89429 17.5195 6.99965 17.2651 6.99965 16.9999C6.99965 16.7347 6.89429 16.4803 6.70675 16.2928C6.51922 16.1053 6.26486 15.9999 5.99965 15.9999C5.46921 15.9999 4.96051 15.7892 4.58543 15.4141C4.21036 15.039 3.99965 14.5303 3.99965 13.9999C3.99965 13.4695 4.21036 12.9608 4.58543 12.5857C4.96051 12.2106 5.46921 11.9999 5.99965 11.9999C6.26486 11.9999 6.51922 11.8945 6.70675 11.707C6.89429 11.5195 6.99965 11.2651 6.99965 10.9999C7.0022 9.81717 7.42393 8.67365 8.18992 7.77248C8.9559 6.87131 10.0165 6.27085 11.1834 6.07777C12.3503 5.88469 13.5478 6.1115 14.5632 6.7179C15.5787 7.32431 16.3463 8.27104 16.7296 9.3899C16.7868 9.56174 16.8896 9.71483 17.0269 9.83283C17.1643 9.95083 17.3312 10.0293 17.5096 10.0599C18.1757 10.1858 18.7795 10.5335 19.2227 11.0464C19.6658 11.5594 19.9222 12.2073 19.95 12.8845C19.9779 13.5618 19.7755 14.2286 19.3759 14.7761C18.9764 15.3237 18.4031 15.7198 17.7496 15.8999C17.4924 15.9662 17.272 16.132 17.137 16.3608C17.0019 16.5896 16.9633 16.8626 17.0296 17.1199C17.096 17.3772 17.2617 17.5975 17.4905 17.7326C17.7193 17.8676 17.9924 17.9062 18.2496 17.8399C19.302 17.5618 20.2349 16.9479 20.9067 16.0914C21.5784 15.2348 21.9522 14.1825 21.9715 13.0942C21.9907 12.0058 21.6543 10.9409 21.0132 10.0612C20.3722 9.18149 19.4616 8.53499 18.4196 8.2199ZM12.7096 10.2899C12.6145 10.1989 12.5024 10.1275 12.3796 10.0799C12.1362 9.97988 11.8631 9.97988 11.6196 10.0799C11.4969 10.1275 11.3847 10.1989 11.2896 10.2899L8.28965 13.2899C8.10134 13.4782 7.99555 13.7336 7.99555 13.9999C7.99555 14.2662 8.10134 14.5216 8.28965 14.7099C8.47795 14.8982 8.73334 15.004 8.99965 15.004C9.26595 15.004 9.52134 14.8982 9.70965 14.7099L10.9996 13.4099V18.9999C10.9996 19.2651 11.105 19.5195 11.2925 19.707C11.4801 19.8945 11.7344 19.9999 11.9996 19.9999C12.2649 19.9999 12.5192 19.8945 12.7068 19.707C12.8943 19.5195 12.9996 19.2651 12.9996 18.9999V13.4099L14.2896 14.7099C14.3826 14.8036 14.4932 14.878 14.6151 14.9288C14.7369 14.9796 14.8676 15.0057 14.9996 15.0057C15.1317 15.0057 15.2624 14.9796 15.3842 14.9288C15.5061 14.878 15.6167 14.8036 15.7096 14.7099C15.8034 14.6169 15.8778 14.5063 15.9285 14.3845C15.9793 14.2626 16.0054 14.1319 16.0054 13.9999C16.0054 13.8679 15.9793 13.7372 15.9285 13.6153C15.8778 13.4935 15.8034 13.3829 15.7096 13.2899L12.7096 10.2899Z" fill="black"/>
</svg>
